<svg xmlns="http://www.w3.org/2000/svg" viewBox="0 0 512 512" fill="currentColor">
  <path d="M256.064 0h-.128C114.784 0 0 114.816 0 256c0 56 18.304 107.904 48.736 150.048l-31.904 95.104 98.4-31.456C155.712 496.512 204 512 256.064 512 397.216 512 512 397.184 512 256S397.216 0 256.064 0zm.064 448c-43.968 0-84.544-12.736-118.912-34.528l-8.576-5.184-31.104 7.936 8.8-30.272-5.44-8.192C80.544 342.72 67.2 301.152 67.2 256c0-104.384 84.928-189.312 189.312-189.312S445.824 151.616 445.824 256 360.896 445.312 256.512 445.312h-.384zm98.112-125.888c-5.376-2.72-31.872-15.744-36.8-17.536-4.96-1.824-8.576-2.72-12.192 2.72-3.616 5.44-13.984 17.536-17.152 21.152-3.168 3.616-6.336 4.032-11.712 1.344-5.376-2.72-22.688-8.352-43.232-26.688-15.968-14.24-26.752-31.808-29.92-37.248-3.168-5.44-.352-8.384 2.368-11.072 2.4-2.336 5.376-6.112 8.064-9.152 2.688-3.04 3.584-5.184 5.376-8.8 1.792-3.616.896-6.752-.448-9.44-1.344-2.688-12.192-29.44-16.704-40.32-4.384-10.656-8.832-9.216-12.192-9.408-3.168-.192-6.784-.224-10.4-.224-3.616 0-9.44 1.344-14.336 6.752-4.896 5.376-18.688 18.272-18.688 44.544 0 26.272 19.2 51.68 21.888 55.296 2.688 3.616 37.76 57.632 91.52 80.832 53.76 23.2 53.76 15.488 63.488 14.528 9.728-.96 31.872-13.024 36.352-25.6 4.48-12.576 4.48-23.36 3.136-25.6-1.312-2.272-4.96-3.616-10.336-6.304z"/>
</svg>